<?xml version="1.0" encoding="UTF-8" standalone="no"?>
<!-- Created with Inkscape (http://www.inkscape.org/) -->

<svg
   version="1.1"
   id="svg2"
   width="386.62759"
   height="199.29425"
   viewBox="0 0 386.62759 199.29425"
   sodipodi:docname="exergy-system.svg"
   inkscape:version="1.2.1 (9c6d41e410, 2022-07-14)"
   xmlns:inkscape="http://www.inkscape.org/namespaces/inkscape"
   xmlns:sodipodi="http://sodipodi.sourceforge.net/DTD/sodipodi-0.dtd"
   xmlns="http://www.w3.org/2000/svg"
   xmlns:svg="http://www.w3.org/2000/svg">
  <defs
     id="defs6" />
  <sodipodi:namedview
     id="namedview4"
     pagecolor="#ffffff"
     bordercolor="#000000"
     borderopacity="0.25"
     inkscape:showpageshadow="2"
     inkscape:pageopacity="0.0"
     inkscape:pagecheckerboard="0"
     inkscape:deskcolor="#d1d1d1"
     showgrid="false"
     inkscape:zoom="3.5744991"
     inkscape:cx="192.33464"
     inkscape:cy="99.734254"
     inkscape:window-width="1920"
     inkscape:window-height="1001"
     inkscape:window-x="-9"
     inkscape:window-y="-9"
     inkscape:window-maximized="1"
     inkscape:current-layer="g10">
    <inkscape:page
       x="0"
       y="0"
       id="page8"
       width="386.62759"
       height="199.29425" />
  </sodipodi:namedview>
  <g
     id="g10"
     inkscape:groupmode="layer"
     inkscape:label="Page 1"
     transform="matrix(1.3333333,0,0,1.3333333,0,4.3156896e-6)">
    <g
       id="g12">
      <g
         id="g14">
        <path
           d="m 40,2.5 h 210 v 110 H 40 Z"
           style="fill:none;stroke:#000000;stroke-width:1;stroke-linecap:butt;stroke-linejoin:miter;stroke-miterlimit:4;stroke-dasharray:none;stroke-opacity:1"
           id="path16" />
      </g>
      <g
         id="g18">
        <path
           d="m 38,0.5 h 214 v 114 H 38 Z"
           style="fill:none;stroke:#000000;stroke-width:1;stroke-linecap:butt;stroke-linejoin:miter;stroke-miterlimit:4;stroke-dasharray:6, 2;stroke-dashoffset:0;stroke-opacity:1"
           id="path20" />
      </g>
      <text
         xml:space="preserve"
         transform="translate(145.14235,124.83002)"
         style="font-variant:normal;font-weight:normal;font-size:10px;font-family:'Linux Libertine O';-inkscape-font-specification:LinLibertineO;writing-mode:lr-tb;fill:#000000;fill-opacity:1;fill-rule:nonzero;stroke:none"
         id="text24"><tspan
           x="0 3.1600001 8.1999998 11.36 15.93 18.57 21.07 24.969999 30.120001 34.02 37.209999 41.68 49.580002 52.080002 57.09 62.130001 67.440002 72.860001 77.919998 82.489998 86.370003 90.940002 93.139999 95.639999 98.800003 103.84"
           y="0"
           sodipodi:role="line"
           id="tspan22">total system boundary, tot</tspan></text>
      <g
         id="g26">
        <path
           d="M 0,57.5 H 38"
           style="fill:none;stroke:#000000;stroke-width:1;stroke-linecap:butt;stroke-linejoin:miter;stroke-miterlimit:4;stroke-dasharray:none;stroke-opacity:1"
           id="path28" />
      </g>
      <g
         id="g30"
         transform="scale(-1)">
        <path
           d="m -34,-57.5 2,-2 -7,2 7,2 z"
           style="fill:#000000;fill-opacity:1;fill-rule:evenodd;stroke:#000000;stroke-width:0.533333;stroke-linecap:butt;stroke-linejoin:miter;stroke-miterlimit:4;stroke-dasharray:none;stroke-opacity:1"
           id="path32" />
      </g>
      <g
         id="g34">
        <path
           d="m 250,57.5 h 38"
           style="fill:none;stroke:#000000;stroke-width:1;stroke-linecap:butt;stroke-linejoin:miter;stroke-miterlimit:4;stroke-dasharray:none;stroke-opacity:1"
           id="path36" />
      </g>
      <g
         id="g38"
         transform="scale(-1)">
        <path
           d="m -284,-57.5 2,-2 -7,2 7,2 z"
           style="fill:#000000;fill-opacity:1;fill-rule:evenodd;stroke:#000000;stroke-width:0.533333;stroke-linecap:butt;stroke-linejoin:miter;stroke-miterlimit:4;stroke-dasharray:none;stroke-opacity:1"
           id="path40" />
      </g>
      <path
         d="M 44.633,123.883 H 37.68 v 0.328 c 0.218,0 0.609,0.156 1.015,0.687 l 2.516,3.985 -3.016,4.031 c -0.218,0.25 -0.359,0.281 -0.547,0.281 v 0.328 h 7.204 l 0.421,-2.625 -0.343,-0.015 c -0.016,0.078 -0.469,1.765 -1.516,1.765 h -4.187 c 1.015,-1.359 2.031,-2.718 3.062,-4.078 l -2.578,-4.062 h 3.422 c 0.844,0 1.297,1.219 1.375,1.5 l 0.344,-0.063 z"
         style="fill:#000000;fill-opacity:1;fill-rule:nonzero;stroke:none"
         id="path42" />
      <path
         d="m 41.98,134.949 c 0,0.219 0.172,0.391 0.375,0.391 0.204,0 0.375,-0.172 0.375,-0.391 0,-0.203 -0.171,-0.375 -0.375,-0.375 -0.203,0 -0.375,0.172 -0.375,0.375 z m 0.344,2 c 0.078,-0.312 0.172,-0.625 0.172,-0.765 0,-0.11 -0.062,-0.157 -0.172,-0.157 -0.25,0 -0.609,0.047 -0.984,0.094 -0.063,0.063 -0.047,0.156 0,0.234 l 0.328,0.016 c 0.094,0.016 0.141,0.078 0.141,0.156 0,0.078 -0.016,0.188 -0.079,0.407 l -0.375,1.64 c -0.046,0.266 -0.125,0.594 -0.125,0.735 0,0.156 0.079,0.265 0.313,0.265 0.391,0 0.75,-0.265 1.109,-0.734 -0.015,-0.078 -0.062,-0.141 -0.172,-0.141 -0.218,0.235 -0.437,0.406 -0.531,0.406 -0.047,0 -0.078,-0.046 -0.078,-0.14 0,-0.078 0.047,-0.25 0.094,-0.453 z"
         style="fill:#000000;fill-opacity:1;fill-rule:nonzero;stroke:none"
         id="path44" />
      <path
         d="m 50.836,122.984 c 0,0.25 0.234,0.516 0.484,0.516 0.266,0 0.516,-0.281 0.516,-0.484 0,-0.235 -0.219,-0.516 -0.484,-0.516 -0.235,0 -0.516,0.234 -0.516,0.484 z"
         style="fill:#000000;fill-opacity:1;fill-rule:nonzero;stroke:none"
         id="path46" />
      <path
         d="m 53.031,124.551 c 0,-0.016 -0.015,-0.031 -0.047,-0.031 -0.171,0.031 -0.218,0.031 -0.453,0.031 h -2.422 c -0.375,0 -0.765,0 -1.203,-0.016 l -0.031,0.016 -0.031,0.203 c -0.016,0.031 -0.016,0.078 0.062,0.078 l 0.282,0.016 c 0.296,0.015 0.421,0.093 0.421,0.312 0,0.031 -0.015,0.094 -0.015,0.141 l -0.969,4.969 c -0.062,0.281 -0.203,0.406 -0.578,0.421 l -0.297,0.032 c -0.062,0 -0.078,0.031 -0.078,0.062 l -0.047,0.203 0.016,0.016 c 0.453,0 0.859,-0.016 1.218,-0.016 h 2.063 c 0.453,0 1.203,0.016 1.203,0.016 0.219,-0.516 0.469,-1.141 0.688,-1.656 l -0.297,-0.047 c -0.328,0.703 -0.813,1.297 -1.547,1.297 h -1.297 c -0.172,0 -0.297,-0.032 -0.297,-0.235 0,-0.015 0,-0.047 0.016,-0.093 l 0.484,-2.5 h 1.219 c 0.297,0 0.422,0.062 0.422,0.296 0,0.016 -0.016,0.047 -0.016,0.079 l -0.016,0.25 c -0.015,0.031 0,0.078 0.047,0.078 h 0.219 l 0.047,-0.032 c 0.031,-0.39 0.078,-0.656 0.125,-0.859 0.031,-0.203 0.094,-0.5 0.203,-0.906 l -0.031,-0.031 h -0.203 c -0.032,0 -0.078,0.031 -0.094,0.078 l -0.063,0.25 c -0.093,0.281 -0.234,0.422 -0.562,0.422 h -1.219 l 0.406,-2.094 c 0.047,-0.25 0.188,-0.344 0.422,-0.344 h 0.985 c 0.718,0 0.828,0.406 0.906,1.094 l 0.281,-0.063 c 0.031,-0.406 0.078,-1.359 0.078,-1.437 z"
         style="fill:#000000;fill-opacity:1;fill-rule:nonzero;stroke:none"
         id="path48" />
      <path
         d="m 54.379,129.313 c 0.047,-0.047 0.047,-0.219 0,-0.266 -0.25,0.016 -0.531,0.016 -0.813,0.016 -0.296,0 -0.515,0 -0.718,-0.016 -0.047,0.047 -0.047,0.219 0,0.266 0.375,0.046 0.453,0.125 0.625,0.531 l 1.047,2.578 c 0.046,0.109 0.109,0.156 0.187,0.156 0.078,0 0.141,-0.047 0.188,-0.172 l 0.812,-1.968 0.813,1.984 c 0.046,0.109 0.109,0.156 0.187,0.156 0.078,0 0.141,-0.047 0.188,-0.172 l 1.046,-2.515 c 0.125,-0.328 0.266,-0.547 0.672,-0.578 0.047,-0.047 0.047,-0.219 0,-0.266 -0.156,0.016 -0.343,0.016 -0.578,0.016 -0.234,0 -0.578,0 -0.812,-0.016 -0.047,0.047 -0.047,0.219 0,0.266 0.593,0.031 0.515,0.265 0.406,0.546 l -0.672,1.657 c -0.078,0.203 -0.109,0.203 -0.172,0.031 l -0.687,-1.75 c -0.141,-0.375 -0.125,-0.453 0.297,-0.484 0.046,-0.047 0.046,-0.219 0,-0.266 -0.25,0.016 -0.563,0.016 -0.797,0.016 -0.203,0 -0.469,0 -0.703,-0.016 -0.047,0.047 -0.047,0.219 0,0.266 0.375,0.031 0.468,0.265 0.609,0.625 l 0.047,0.125 -0.563,1.406 c -0.093,0.265 -0.109,0.281 -0.218,0.015 l -0.641,-1.64 c -0.141,-0.375 -0.141,-0.5 0.25,-0.531 z"
         style="fill:#000000;fill-opacity:1;fill-rule:nonzero;stroke:none"
         id="path50" />
      <path
         d="m 59.066,131.734 c -0.25,0 -0.421,0.157 -0.421,0.391 0,0.234 0.203,0.313 0.343,0.344 0.157,0.015 0.297,0.062 0.297,0.25 0,0.156 -0.297,0.531 -0.703,0.64 0,0.079 0.016,0.125 0.078,0.188 0.469,-0.094 0.938,-0.469 0.938,-1.031 0,-0.485 -0.219,-0.782 -0.532,-0.782 z"
         style="fill:#000000;fill-opacity:1;fill-rule:nonzero;stroke:none"
         id="path52" />
      <path
         d="m 61.602,127.938 c 0,0.218 0.171,0.39 0.375,0.39 0.203,0 0.375,-0.172 0.375,-0.39 0,-0.204 -0.172,-0.375 -0.375,-0.375 -0.204,0 -0.375,0.171 -0.375,0.375 z m 0.343,2 c 0.078,-0.313 0.172,-0.625 0.172,-0.766 0,-0.109 -0.062,-0.156 -0.172,-0.156 -0.25,0 -0.609,0.047 -0.984,0.093 -0.063,0.063 -0.047,0.157 0,0.235 l 0.328,0.015 c 0.094,0.016 0.141,0.079 0.141,0.157 0,0.078 -0.016,0.187 -0.078,0.406 l -0.375,1.641 c -0.047,0.265 -0.125,0.593 -0.125,0.734 0,0.156 0.078,0.266 0.312,0.266 0.391,0 0.75,-0.266 1.109,-0.735 -0.015,-0.078 -0.062,-0.14 -0.171,-0.14 -0.219,0.234 -0.438,0.406 -0.532,0.406 -0.047,0 -0.078,-0.047 -0.078,-0.141 0,-0.078 0.047,-0.25 0.094,-0.453 z"
         style="fill:#000000;fill-opacity:1;fill-rule:nonzero;stroke:none"
         id="path54" />
      <path
         d="m 100.348,123.883 h -6.953 v 0.328 c 0.218,0 0.609,0.156 1.015,0.687 l 2.516,3.985 -3.016,4.031 c -0.219,0.25 -0.359,0.281 -0.547,0.281 v 0.328 h 7.203 l 0.422,-2.625 -0.343,-0.015 c -0.016,0.078 -0.469,1.765 -1.516,1.765 h -4.188 c 1.016,-1.359 2.032,-2.718 3.063,-4.078 l -2.578,-4.062 h 3.422 c 0.843,0 1.297,1.219 1.375,1.5 l 0.343,-0.063 z"
         style="fill:#000000;fill-opacity:1;fill-rule:nonzero;stroke:none"
         id="path56" />
      <path
         d="m 97.707,134.949 c 0,0.219 0.172,0.391 0.391,0.391 0.203,0 0.375,-0.172 0.375,-0.391 0,-0.203 -0.172,-0.375 -0.375,-0.375 -0.219,0 -0.391,0.172 -0.391,0.375 z m 0.359,2 c 0.079,-0.328 0.157,-0.656 0.157,-0.765 0,-0.11 -0.063,-0.157 -0.172,-0.157 -0.25,0 -0.61,0.047 -0.985,0.094 -0.046,0.063 -0.031,0.156 0.016,0.234 l 0.313,0.016 c 0.093,0.016 0.14,0.078 0.14,0.156 0,0.078 -0.015,0.188 -0.062,0.407 l -0.25,1.156 c -0.172,0.781 -0.25,1.281 -0.391,1.859 -0.172,0.672 -0.453,0.828 -0.594,0.828 -0.218,0 -0.172,-0.343 -0.562,-0.343 -0.11,0 -0.235,0.078 -0.235,0.234 0,0.266 0.313,0.391 0.657,0.391 1,0 1.422,-1.485 1.828,-3.422 z"
         style="fill:#000000;fill-opacity:1;fill-rule:nonzero;stroke:none"
         id="path58" />
      <path
         d="m 106.551,122.984 c 0,0.25 0.234,0.516 0.484,0.516 0.266,0 0.516,-0.281 0.516,-0.484 0,-0.235 -0.219,-0.516 -0.485,-0.516 -0.234,0 -0.515,0.234 -0.515,0.484 z"
         style="fill:#000000;fill-opacity:1;fill-rule:nonzero;stroke:none"
         id="path60" />
      <path
         d="m 108.742,124.551 c 0,-0.016 -0.015,-0.031 -0.047,-0.031 -0.172,0.031 -0.218,0.031 -0.453,0.031 h -2.422 c -0.375,0 -0.765,0 -1.203,-0.016 l -0.031,0.016 -0.031,0.203 c -0.016,0.031 -0.016,0.078 0.062,0.078 l 0.281,0.016 c 0.297,0.015 0.422,0.093 0.422,0.312 0,0.031 -0.015,0.094 -0.015,0.141 l -0.969,4.969 c -0.063,0.281 -0.203,0.406 -0.578,0.421 l -0.297,0.032 c -0.063,0 -0.078,0.031 -0.078,0.062 l -0.047,0.203 0.016,0.016 c 0.453,0 0.859,-0.016 1.218,-0.016 h 2.063 c 0.453,0 1.203,0.016 1.203,0.016 0.219,-0.516 0.469,-1.141 0.687,-1.656 l -0.296,-0.047 c -0.329,0.703 -0.813,1.297 -1.547,1.297 h -1.297 c -0.172,0 -0.297,-0.032 -0.297,-0.235 0,-0.015 0,-0.047 0.016,-0.093 l 0.484,-2.5 h 1.219 c 0.297,0 0.422,0.062 0.422,0.296 0,0.016 -0.016,0.047 -0.016,0.079 l -0.016,0.25 c -0.015,0.031 0,0.078 0.047,0.078 h 0.219 l 0.047,-0.032 c 0.031,-0.39 0.078,-0.656 0.125,-0.859 0.031,-0.203 0.094,-0.5 0.203,-0.906 l -0.031,-0.031 h -0.203 c -0.032,0 -0.079,0.031 -0.094,0.078 l -0.063,0.25 c -0.093,0.281 -0.234,0.422 -0.562,0.422 h -1.219 l 0.406,-2.094 c 0.047,-0.25 0.188,-0.344 0.422,-0.344 h 0.985 c 0.718,0 0.828,0.406 0.906,1.094 l 0.281,-0.063 c 0.031,-0.406 0.078,-1.359 0.078,-1.437 z"
         style="fill:#000000;fill-opacity:1;fill-rule:nonzero;stroke:none"
         id="path62" />
      <path
         d="m 111.031,129.547 c 0.157,0.187 0.188,0.297 0.188,0.484 v 1.844 c 0,0.141 0,0.172 -0.11,0.234 -0.171,0.094 -0.39,0.11 -0.515,0.11 -0.469,0 -1.156,-0.344 -1.156,-1.547 0,-0.828 0.328,-1.422 0.968,-1.422 0.235,0 0.453,0.109 0.625,0.297 z m 0.188,3.828 c 0,0.656 -0.078,0.688 -0.563,0.719 -0.047,0.047 -0.047,0.203 0,0.25 0.282,0 0.563,-0.016 0.891,-0.016 0.312,0 0.625,0.016 0.875,0.016 0.062,-0.047 0.062,-0.203 0,-0.25 -0.484,-0.031 -0.563,-0.063 -0.563,-0.719 v -4.219 c 0,-0.109 -0.031,-0.187 -0.125,-0.187 -0.046,0 -0.109,0.062 -0.171,0.14 -0.094,0.141 -0.125,0.172 -0.219,0.11 -0.266,-0.156 -0.578,-0.235 -0.906,-0.235 -0.969,0 -1.688,0.797 -1.688,1.844 0,0.75 0.5,1.735 1.641,1.735 0.218,0 0.484,-0.047 0.625,-0.125 0.172,-0.11 0.203,-0.125 0.203,0.046 z"
         style="fill:#000000;fill-opacity:1;fill-rule:nonzero;stroke:none"
         id="path64" />
      <path
         d="m 113.305,131.734 c -0.25,0 -0.422,0.157 -0.422,0.391 0,0.234 0.203,0.313 0.344,0.344 0.156,0.015 0.296,0.062 0.296,0.25 0,0.156 -0.296,0.531 -0.703,0.64 0,0.079 0.016,0.125 0.078,0.188 0.469,-0.094 0.938,-0.469 0.938,-1.031 0,-0.485 -0.219,-0.782 -0.531,-0.782 z"
         style="fill:#000000;fill-opacity:1;fill-rule:nonzero;stroke:none"
         id="path66" />
      <path
         d="m 115.871,127.938 c 0,0.218 0.172,0.39 0.391,0.39 0.203,0 0.375,-0.172 0.375,-0.39 0,-0.204 -0.172,-0.375 -0.375,-0.375 -0.219,0 -0.391,0.171 -0.391,0.375 z m 0.359,2 c 0.079,-0.329 0.157,-0.657 0.157,-0.766 0,-0.109 -0.063,-0.156 -0.172,-0.156 -0.25,0 -0.61,0.047 -0.985,0.093 -0.046,0.063 -0.031,0.157 0.016,0.235 l 0.313,0.015 c 0.093,0.016 0.14,0.079 0.14,0.157 0,0.078 -0.015,0.187 -0.062,0.406 l -0.25,1.156 c -0.172,0.781 -0.25,1.281 -0.391,1.86 -0.172,0.671 -0.453,0.828 -0.594,0.828 -0.218,0 -0.172,-0.344 -0.562,-0.344 -0.11,0 -0.235,0.078 -0.235,0.234 0,0.266 0.313,0.391 0.657,0.391 1,0 1.422,-1.484 1.828,-3.422 z"
         style="fill:#000000;fill-opacity:1;fill-rule:nonzero;stroke:none"
         id="path68" />
      <g
         id="g70">
        <path
           d="m 65,147.5 v -55"
           style="fill:none;stroke:#000000;stroke-width:1;stroke-linecap:butt;stroke-linejoin:miter;stroke-miterlimit:4;stroke-dasharray:none;stroke-opacity:1"
           id="path72" />
      </g>
      <g
         id="g74"
         transform="rotate(-90)">
        <path
           d="m -143.5,65 2,-2 -7,2 7,2 z"
           style="fill:#000000;fill-opacity:1;fill-rule:evenodd;stroke:#000000;stroke-width:0.533333;stroke-linecap:butt;stroke-linejoin:miter;stroke-miterlimit:4;stroke-dasharray:none;stroke-opacity:1"
           id="path76" />
      </g>
      <g
         id="g78"
         transform="rotate(90)">
        <path
           d="m 96.5,-65 2,-2 -7,2 7,2 z"
           style="fill:#000000;fill-opacity:1;fill-rule:evenodd;stroke:#000000;stroke-width:0.533333;stroke-linecap:butt;stroke-linejoin:miter;stroke-miterlimit:4;stroke-dasharray:none;stroke-opacity:1"
           id="path80" />
      </g>
      <g
         id="g82">
        <path
           d="m 120,147.5 v -55"
           style="fill:none;stroke:#000000;stroke-width:1;stroke-linecap:butt;stroke-linejoin:miter;stroke-miterlimit:4;stroke-dasharray:none;stroke-opacity:1"
           id="path84" />
      </g>
      <g
         id="g86"
         transform="rotate(-90)">
        <path
           d="m -143.5,120 2,-2 -7,2 7,2 z"
           style="fill:#000000;fill-opacity:1;fill-rule:evenodd;stroke:#000000;stroke-width:0.533333;stroke-linecap:butt;stroke-linejoin:miter;stroke-miterlimit:4;stroke-dasharray:none;stroke-opacity:1"
           id="path88" />
      </g>
      <g
         id="g90"
         transform="rotate(90)">
        <path
           d="m 96.5,-120 2,-2 -7,2 7,2 z"
           style="fill:#000000;fill-opacity:1;fill-rule:evenodd;stroke:#000000;stroke-width:0.533333;stroke-linecap:butt;stroke-linejoin:miter;stroke-miterlimit:4;stroke-dasharray:none;stroke-opacity:1"
           id="path92" />
      </g>
      <path
         d="M 11.098,38.883 H 4.145 v 0.328 c 0.218,0 0.609,0.156 1.015,0.687 l 2.516,3.985 -3.016,4.031 c -0.219,0.25 -0.359,0.281 -0.547,0.281 v 0.328 h 7.203 l 0.422,-2.625 -0.343,-0.015 c -0.016,0.078 -0.469,1.765 -1.516,1.765 H 5.691 C 6.707,46.289 7.723,44.93 8.754,43.57 L 6.176,39.508 h 3.422 c 0.843,0 1.297,1.219 1.375,1.5 l 0.343,-0.063 z"
         style="fill:#000000;fill-opacity:1;fill-rule:nonzero;stroke:none"
         id="path94" />
      <path
         d="m 6.293,49.949 c 0,0.219 0.172,0.391 0.375,0.391 0.203,0 0.375,-0.172 0.375,-0.391 0,-0.203 -0.172,-0.375 -0.375,-0.375 -0.203,0 -0.375,0.172 -0.375,0.375 z m 0.344,2 c 0.078,-0.312 0.172,-0.625 0.172,-0.765 0,-0.11 -0.063,-0.157 -0.172,-0.157 -0.25,0 -0.61,0.047 -0.985,0.094 -0.062,0.063 -0.047,0.156 0,0.234 l 0.328,0.016 c 0.094,0.016 0.141,0.078 0.141,0.156 0,0.078 -0.016,0.188 -0.078,0.407 l -0.375,1.64 c -0.047,0.266 -0.125,0.594 -0.125,0.735 0,0.156 0.078,0.265 0.312,0.265 0.391,0 0.75,-0.265 1.11,-0.734 -0.016,-0.078 -0.063,-0.141 -0.172,-0.141 -0.219,0.235 -0.438,0.406 -0.531,0.406 -0.047,0 -0.078,-0.046 -0.078,-0.14 0,-0.078 0.046,-0.25 0.093,-0.453 z"
         style="fill:#000000;fill-opacity:1;fill-rule:nonzero;stroke:none"
         id="path96" />
      <path
         d="m 9.238,51.184 c 0,-0.11 -0.062,-0.157 -0.172,-0.157 -0.25,0 -0.625,0.047 -1,0.094 -0.046,0.063 -0.031,0.156 0.016,0.234 l 0.313,0.016 c 0.093,0.016 0.14,0.078 0.14,0.156 0,0.063 -0.015,0.188 -0.062,0.407 L 8.02,53.918 c -0.047,0.156 -0.11,0.359 -0.11,0.437 0,0.125 0.094,0.219 0.344,0.219 0.312,0 0.297,-0.344 0.375,-0.656 l 0.297,-1.313 c 0.5,-0.656 0.937,-1.125 1.234,-1.125 0.156,0 0.281,0.032 0.281,0.282 0,0.093 -0.062,0.312 -0.109,0.547 l -0.297,1.265 c -0.078,0.266 -0.14,0.594 -0.14,0.735 0,0.156 0.078,0.265 0.328,0.265 0.375,0 0.765,-0.265 1.125,-0.734 -0.016,-0.078 -0.063,-0.141 -0.188,-0.141 -0.203,0.235 -0.437,0.406 -0.515,0.406 -0.047,0 -0.079,-0.046 -0.079,-0.14 0,-0.078 0.047,-0.25 0.094,-0.453 l 0.297,-1.266 c 0.063,-0.281 0.109,-0.469 0.109,-0.609 0,-0.485 -0.218,-0.641 -0.531,-0.641 -0.406,0 -0.75,0.172 -1.484,1.031 L 9.035,52.012 c 0.094,-0.266 0.203,-0.688 0.203,-0.828 z"
         style="fill:#000000;fill-opacity:1;fill-rule:nonzero;stroke:none"
         id="path98" />
      <path
         d="m 17.301,37.984 c 0,0.25 0.234,0.516 0.484,0.516 0.266,0 0.516,-0.281 0.516,-0.484 0,-0.235 -0.219,-0.516 -0.485,-0.516 -0.234,0 -0.515,0.234 -0.515,0.484 z"
         style="fill:#000000;fill-opacity:1;fill-rule:nonzero;stroke:none"
         id="path100" />
      <path
         d="m 19.496,39.551 c 0,-0.016 -0.016,-0.031 -0.047,-0.031 -0.172,0.031 -0.219,0.031 -0.453,0.031 h -2.422 c -0.375,0 -0.765,0 -1.203,-0.016 l -0.031,0.016 -0.031,0.203 c -0.016,0.031 -0.016,0.078 0.062,0.078 l 0.281,0.016 c 0.297,0.015 0.422,0.093 0.422,0.312 0,0.031 -0.015,0.094 -0.015,0.141 L 15.09,45.27 c -0.063,0.281 -0.203,0.406 -0.578,0.421 l -0.297,0.032 c -0.063,0 -0.078,0.031 -0.078,0.062 l -0.047,0.203 0.015,0.016 c 0.454,0 0.86,-0.016 1.219,-0.016 h 2.063 c 0.453,0 1.203,0.016 1.203,0.016 0.219,-0.516 0.469,-1.141 0.687,-1.656 L 18.98,44.301 c -0.328,0.703 -0.812,1.297 -1.546,1.297 h -1.297 c -0.172,0 -0.297,-0.032 -0.297,-0.235 0,-0.015 0,-0.047 0.015,-0.093 l 0.485,-2.5 h 1.219 c 0.296,0 0.421,0.062 0.421,0.296 0,0.016 -0.015,0.047 -0.015,0.079 l -0.016,0.25 c -0.015,0.031 0,0.078 0.047,0.078 h 0.219 l 0.047,-0.032 c 0.031,-0.39 0.078,-0.656 0.125,-0.859 0.031,-0.203 0.093,-0.5 0.203,-0.906 l -0.031,-0.031 h -0.204 c -0.031,0 -0.078,0.031 -0.093,0.078 l -0.063,0.25 c -0.094,0.281 -0.234,0.422 -0.562,0.422 h -1.219 l 0.406,-2.094 c 0.047,-0.25 0.188,-0.344 0.422,-0.344 h 0.984 c 0.719,0 0.829,0.406 0.907,1.094 l 0.281,-0.063 c 0.031,-0.406 0.078,-1.359 0.078,-1.437 z"
         style="fill:#000000;fill-opacity:1;fill-rule:nonzero;stroke:none"
         id="path102" />
      <path
         d="m 20.828,42.938 c 0,0.218 0.172,0.39 0.375,0.39 0.203,0 0.375,-0.172 0.375,-0.39 0,-0.204 -0.172,-0.375 -0.375,-0.375 -0.203,0 -0.375,0.171 -0.375,0.375 z m 0.344,2 c 0.078,-0.313 0.172,-0.625 0.172,-0.766 0,-0.109 -0.063,-0.156 -0.172,-0.156 -0.25,0 -0.609,0.047 -0.984,0.093 -0.063,0.063 -0.047,0.157 0,0.235 l 0.328,0.015 c 0.093,0.016 0.14,0.079 0.14,0.157 0,0.078 -0.015,0.187 -0.078,0.406 l -0.375,1.641 c -0.047,0.265 -0.125,0.593 -0.125,0.734 0,0.156 0.078,0.266 0.313,0.266 0.39,0 0.75,-0.266 1.109,-0.735 -0.016,-0.078 -0.062,-0.14 -0.172,-0.14 -0.219,0.234 -0.437,0.406 -0.531,0.406 -0.047,0 -0.078,-0.047 -0.078,-0.141 0,-0.078 0.047,-0.25 0.094,-0.453 z"
         style="fill:#000000;fill-opacity:1;fill-rule:nonzero;stroke:none"
         id="path104" />
      <path
         d="m 23.777,44.172 c 0,-0.109 -0.062,-0.156 -0.172,-0.156 -0.25,0 -0.625,0.047 -1,0.093 -0.046,0.063 -0.031,0.157 0.016,0.235 l 0.313,0.015 c 0.093,0.016 0.14,0.079 0.14,0.157 0,0.062 -0.015,0.187 -0.062,0.406 l -0.453,1.984 c -0.047,0.157 -0.11,0.36 -0.11,0.438 0,0.125 0.094,0.219 0.344,0.219 0.312,0 0.297,-0.344 0.375,-0.657 l 0.297,-1.312 c 0.5,-0.656 0.937,-1.125 1.234,-1.125 0.156,0 0.281,0.031 0.281,0.281 0,0.094 -0.062,0.313 -0.109,0.547 l -0.297,1.266 c -0.078,0.265 -0.14,0.593 -0.14,0.734 0,0.156 0.078,0.266 0.328,0.266 0.375,0 0.765,-0.266 1.125,-0.735 -0.016,-0.078 -0.063,-0.14 -0.188,-0.14 -0.203,0.234 -0.437,0.406 -0.515,0.406 -0.047,0 -0.079,-0.047 -0.079,-0.141 0,-0.078 0.047,-0.25 0.094,-0.453 l 0.297,-1.266 c 0.063,-0.281 0.109,-0.468 0.109,-0.609 0,-0.484 -0.218,-0.641 -0.531,-0.641 -0.406,0 -0.75,0.172 -1.484,1.032 L 23.574,45 c 0.094,-0.266 0.203,-0.687 0.203,-0.828 z"
         style="fill:#000000;fill-opacity:1;fill-rule:nonzero;stroke:none"
         id="path106" />
      <path
         d="m 263.633,38.883 h -6.953 v 0.328 c 0.218,0 0.609,0.156 1.015,0.687 l 2.516,3.985 -3.016,4.031 c -0.218,0.25 -0.359,0.281 -0.547,0.281 v 0.328 h 7.204 l 0.421,-2.625 -0.343,-0.015 c -0.016,0.078 -0.469,1.765 -1.516,1.765 h -4.187 c 1.015,-1.359 2.031,-2.718 3.062,-4.078 l -2.578,-4.062 h 3.422 c 0.844,0 1.297,1.219 1.375,1.5 l 0.344,-0.063 z"
         style="fill:#000000;fill-opacity:1;fill-rule:nonzero;stroke:none"
         id="path108" />
      <path
         d="m 258.031,52.031 c 0,0.328 -0.047,1.016 -0.343,1.453 -0.219,0.344 -0.547,0.485 -0.844,0.485 -0.235,0 -0.578,-0.297 -0.578,-1.141 0,-0.719 0.312,-1.875 1.156,-1.875 0.484,0 0.609,0.594 0.609,1.078 z m -2.422,0.86 c 0,0.422 0.094,1.375 1.11,1.375 0.25,0 0.5,-0.032 0.734,-0.157 0.688,-0.343 1.235,-1.187 1.235,-2.125 0,-0.578 -0.141,-1.296 -1.125,-1.296 -1.329,0 -1.954,1.25 -1.954,2.203 z"
         style="fill:#000000;fill-opacity:1;fill-rule:nonzero;stroke:none"
         id="path110" />
      <path
         d="m 262.883,51.375 c 0.031,-0.141 0.109,-0.375 0.109,-0.469 0,-0.14 -0.078,-0.218 -0.344,-0.218 -0.296,0 -0.281,0.359 -0.359,0.656 l -0.234,0.875 c -0.594,1 -0.985,1.578 -1.375,1.578 -0.141,0 -0.25,-0.094 -0.25,-0.297 0,-0.141 0.031,-0.297 0.078,-0.516 l 0.344,-1.296 c 0.062,-0.25 0.171,-0.579 0.171,-0.735 0,-0.156 -0.046,-0.265 -0.296,-0.265 -0.375,0 -0.829,0.265 -1.204,0.75 0.032,0.062 0.079,0.125 0.188,0.125 0.203,-0.235 0.469,-0.391 0.547,-0.391 0.062,0 0.078,0.031 0.078,0.125 0,0.078 -0.047,0.25 -0.094,0.453 l -0.359,1.344 c -0.047,0.203 -0.078,0.39 -0.078,0.531 0,0.453 0.265,0.641 0.531,0.641 0.625,0 1.031,-0.5 1.594,-1.328 l 0.015,0.015 -0.078,0.313 c -0.078,0.265 -0.14,0.593 -0.14,0.734 0,0.156 0.062,0.266 0.296,0.266 0.375,0 0.735,-0.266 1.11,-0.735 -0.031,-0.078 -0.078,-0.14 -0.188,-0.14 -0.203,0.234 -0.437,0.406 -0.515,0.406 -0.063,0 -0.078,-0.047 -0.078,-0.141 0,-0.078 0.031,-0.25 0.078,-0.453 z"
         style="fill:#000000;fill-opacity:1;fill-rule:nonzero;stroke:none"
         id="path112" />
      <path
         d="m 264.773,50.766 -0.421,0.031 c -0.157,0 -0.204,0.062 -0.219,0.125 -0.016,0.031 -0.031,0.125 -0.031,0.141 0,0.015 0.015,0.015 0.046,0.015 h 0.547 l -0.484,2.172 c -0.047,0.25 -0.109,0.5 -0.109,0.656 0,0.282 0.14,0.36 0.39,0.36 0.36,0 0.891,-0.328 1.156,-0.813 -0.031,-0.109 -0.078,-0.156 -0.171,-0.156 -0.375,0.406 -0.516,0.5 -0.641,0.5 -0.031,0 -0.109,-0.031 -0.109,-0.125 0,-0.063 0.031,-0.219 0.093,-0.5 l 0.469,-2.094 h 0.781 c 0.063,-0.015 0.125,-0.14 0.125,-0.219 0,-0.031 -0.015,-0.062 -0.047,-0.093 h -0.781 l 0.078,-0.36 c 0.032,-0.14 0.094,-0.375 0.094,-0.468 0,-0.141 -0.062,-0.219 -0.312,-0.219 -0.282,0 -0.266,0.359 -0.36,0.656 z"
         style="fill:#000000;fill-opacity:1;fill-rule:nonzero;stroke:none"
         id="path114" />
      <path
         d="m 271.262,37.984 c 0,0.25 0.234,0.516 0.484,0.516 0.266,0 0.516,-0.281 0.516,-0.484 0,-0.235 -0.219,-0.516 -0.485,-0.516 -0.234,0 -0.515,0.234 -0.515,0.484 z"
         style="fill:#000000;fill-opacity:1;fill-rule:nonzero;stroke:none"
         id="path116" />
      <path
         d="m 273.453,39.551 c 0,-0.016 -0.015,-0.031 -0.047,-0.031 -0.172,0.031 -0.218,0.031 -0.453,0.031 h -2.422 c -0.375,0 -0.765,0 -1.203,-0.016 l -0.031,0.016 -0.031,0.203 c -0.016,0.031 -0.016,0.078 0.062,0.078 l 0.281,0.016 c 0.297,0.015 0.422,0.093 0.422,0.312 0,0.031 -0.015,0.094 -0.015,0.141 l -0.969,4.969 c -0.063,0.281 -0.203,0.406 -0.578,0.421 l -0.297,0.032 c -0.063,0 -0.078,0.031 -0.078,0.062 l -0.047,0.203 0.016,0.016 c 0.453,0 0.859,-0.016 1.218,-0.016 h 2.063 c 0.453,0 1.203,0.016 1.203,0.016 0.219,-0.516 0.469,-1.141 0.687,-1.656 l -0.296,-0.047 c -0.329,0.703 -0.813,1.297 -1.547,1.297 h -1.297 c -0.172,0 -0.297,-0.032 -0.297,-0.235 0,-0.015 0,-0.047 0.016,-0.093 l 0.484,-2.5 h 1.219 c 0.297,0 0.422,0.062 0.422,0.296 0,0.016 -0.016,0.047 -0.016,0.079 l -0.016,0.25 c -0.015,0.031 0,0.078 0.047,0.078 h 0.219 l 0.047,-0.032 c 0.031,-0.39 0.078,-0.656 0.125,-0.859 0.031,-0.203 0.094,-0.5 0.203,-0.906 l -0.031,-0.031 h -0.203 c -0.032,0 -0.079,0.031 -0.094,0.078 l -0.063,0.25 c -0.093,0.281 -0.234,0.422 -0.562,0.422 h -1.219 l 0.406,-2.094 c 0.047,-0.25 0.188,-0.344 0.422,-0.344 h 0.985 c 0.718,0 0.828,0.406 0.906,1.094 l 0.281,-0.063 c 0.031,-0.406 0.078,-1.359 0.078,-1.437 z"
         style="fill:#000000;fill-opacity:1;fill-rule:nonzero;stroke:none"
         id="path118" />
      <path
         d="m 276.227,45.328 c 0,0.328 -0.047,1.016 -0.344,1.453 -0.219,0.344 -0.547,0.485 -0.844,0.485 -0.234,0 -0.578,-0.297 -0.578,-1.141 0,-0.719 0.312,-1.875 1.156,-1.875 0.485,0 0.61,0.594 0.61,1.078 z m -2.422,0.86 c 0,0.421 0.093,1.375 1.109,1.375 0.25,0 0.5,-0.032 0.734,-0.157 0.688,-0.343 1.235,-1.187 1.235,-2.125 0,-0.578 -0.141,-1.297 -1.125,-1.297 -1.328,0 -1.953,1.25 -1.953,2.204 z"
         style="fill:#000000;fill-opacity:1;fill-rule:nonzero;stroke:none"
         id="path120" />
      <path
         d="m 281.078,44.672 c 0.031,-0.141 0.11,-0.375 0.11,-0.469 0,-0.14 -0.079,-0.219 -0.344,-0.219 -0.297,0 -0.281,0.36 -0.36,0.657 l -0.234,0.875 c -0.594,1 -0.984,1.578 -1.375,1.578 -0.141,0 -0.25,-0.094 -0.25,-0.297 0,-0.141 0.031,-0.297 0.078,-0.516 l 0.344,-1.297 c 0.062,-0.25 0.172,-0.578 0.172,-0.734 0,-0.156 -0.047,-0.266 -0.297,-0.266 -0.375,0 -0.828,0.266 -1.203,0.75 0.031,0.063 0.078,0.125 0.187,0.125 0.203,-0.234 0.469,-0.39 0.547,-0.39 0.063,0 0.078,0.031 0.078,0.125 0,0.078 -0.047,0.25 -0.093,0.453 l -0.36,1.344 c -0.047,0.203 -0.078,0.39 -0.078,0.531 0,0.453 0.266,0.641 0.531,0.641 0.625,0 1.032,-0.5 1.594,-1.329 l 0.016,0.016 -0.078,0.313 c -0.079,0.265 -0.141,0.593 -0.141,0.734 0,0.156 0.062,0.266 0.297,0.266 0.375,0 0.734,-0.266 1.109,-0.735 -0.031,-0.078 -0.078,-0.14 -0.187,-0.14 -0.203,0.234 -0.438,0.406 -0.516,0.406 -0.062,0 -0.078,-0.047 -0.078,-0.141 0,-0.078 0.031,-0.25 0.078,-0.453 z"
         style="fill:#000000;fill-opacity:1;fill-rule:nonzero;stroke:none"
         id="path122" />
      <path
         d="m 282.969,44.063 -0.422,0.031 c -0.156,0 -0.203,0.062 -0.219,0.125 -0.015,0.031 -0.031,0.125 -0.031,0.14 0,0.016 0.016,0.016 0.047,0.016 h 0.547 l -0.485,2.172 c -0.047,0.25 -0.109,0.5 -0.109,0.656 0,0.281 0.141,0.36 0.391,0.36 0.359,0 0.89,-0.329 1.156,-0.813 -0.031,-0.109 -0.078,-0.156 -0.172,-0.156 -0.375,0.406 -0.516,0.5 -0.641,0.5 -0.031,0 -0.109,-0.031 -0.109,-0.125 0,-0.063 0.031,-0.219 0.094,-0.5 l 0.468,-2.094 h 0.782 c 0.062,-0.016 0.125,-0.141 0.125,-0.219 0,-0.031 -0.016,-0.062 -0.047,-0.093 h -0.781 l 0.078,-0.36 c 0.031,-0.14 0.093,-0.375 0.093,-0.469 0,-0.14 -0.062,-0.218 -0.312,-0.218 -0.281,0 -0.266,0.359 -0.359,0.656 z"
         style="fill:#000000;fill-opacity:1;fill-rule:nonzero;stroke:none"
         id="path124" />
      <g
         id="g126">
        <path
           d="m 155,17.5 h 55 v 90 h -55 z"
           style="fill:#cbcbcb;fill-opacity:1;fill-rule:nonzero;stroke:#000000;stroke-width:1;stroke-linecap:butt;stroke-linejoin:miter;stroke-miterlimit:4;stroke-dasharray:6, 2;stroke-dashoffset:1.5;stroke-opacity:1"
           id="path128" />
      </g>
      <path
         d="m 85.938,65.906 c -0.047,-0.093 -0.125,-0.125 -0.204,-0.14 -0.343,0.437 -0.781,0.656 -1.203,0.656 -0.734,0 -1.343,-0.734 -1.343,-1.906 0,-1.094 0.484,-1.75 1.14,-1.75 0.594,0 0.672,0.343 0.719,0.703 0.016,0.265 0.156,0.359 0.375,0.359 0.203,0 0.484,-0.14 0.484,-0.437 0,-0.563 -0.562,-0.953 -1.531,-0.953 -0.984,0 -2.031,0.89 -2.031,2.296 0,1.297 0.719,2.172 1.969,2.172 0.593,0 1.125,-0.187 1.625,-1 z"
         style="fill:#000000;fill-opacity:1;fill-rule:nonzero;stroke:none"
         id="path130" />
      <path
         d="m 86.637,64.766 c 0,1.015 0.687,2.14 2.093,2.14 0.641,0 1.125,-0.218 1.469,-0.547 0.453,-0.437 0.641,-1.078 0.641,-1.687 0,-1.031 -0.563,-2.234 -2.094,-2.234 -0.656,0 -1.187,0.265 -1.562,0.703 -0.36,0.422 -0.547,1 -0.547,1.625 z m 1.968,-1.985 c 0.86,0 1.391,0.782 1.391,2.219 0,1.25 -0.656,1.563 -1.125,1.563 -1.031,0 -1.375,-1.25 -1.375,-2.016 0,-0.875 0.203,-1.766 1.109,-1.766 z"
         style="fill:#000000;fill-opacity:1;fill-rule:nonzero;stroke:none"
         id="path132" />
      <path
         d="m 92.941,63.25 c 0,-0.312 -0.015,-0.672 -0.078,-0.766 -0.015,-0.046 -0.031,-0.078 -0.109,-0.078 -0.281,0.11 -0.547,0.203 -1.234,0.297 -0.016,0.047 0,0.219 0.031,0.266 0.531,0.062 0.64,0.109 0.64,0.687 v 1.938 c 0,0.812 -0.125,0.875 -0.671,0.906 -0.063,0.063 -0.063,0.266 0,0.328 0.296,0 0.671,-0.015 1.062,-0.015 0.406,0 0.719,0.015 1.016,0.015 0.062,-0.062 0.062,-0.265 0,-0.328 -0.516,-0.047 -0.625,-0.094 -0.625,-0.906 v -1.625 c 0,-0.219 0.093,-0.344 0.172,-0.422 0.406,-0.391 0.765,-0.594 1.078,-0.594 0.375,0 0.656,0.235 0.656,0.906 v 1.735 c 0,0.812 -0.078,0.875 -0.609,0.906 -0.063,0.063 -0.063,0.266 0,0.328 0.25,0 0.609,-0.015 1.015,-0.015 0.391,0 0.719,0.015 0.969,0.015 0.047,-0.062 0.047,-0.265 0,-0.328 -0.5,-0.031 -0.578,-0.094 -0.578,-0.906 v -1.578 c 0,-0.141 0,-0.282 -0.016,-0.407 0.485,-0.531 0.922,-0.656 1.313,-0.656 0.375,0 0.593,0.219 0.593,0.891 v 1.75 c 0,0.812 -0.093,0.875 -0.609,0.906 -0.047,0.063 -0.047,0.266 0,0.328 0.25,0 0.609,-0.015 1.016,-0.015 0.406,0 0.75,0.015 1.031,0.015 0.047,-0.062 0.047,-0.265 0,-0.328 -0.547,-0.031 -0.641,-0.094 -0.641,-0.906 v -1.578 c 0,-0.875 -0.156,-1.578 -1.031,-1.578 -0.5,0 -1.125,0.187 -1.641,0.734 -0.031,0.031 -0.093,0.078 -0.109,-0.016 -0.094,-0.406 -0.484,-0.718 -1,-0.718 -0.578,0 -1.094,0.343 -1.516,0.812 -0.046,0.047 -0.109,0.109 -0.125,0 z"
         style="fill:#000000;fill-opacity:1;fill-rule:nonzero;stroke:none"
         id="path134" />
      <path
         d="m 100.875,63.516 c 0.25,-0.328 0.719,-0.625 1,-0.625 0.641,0 1.188,0.718 1.188,1.843 0,0.829 -0.282,1.844 -1.407,1.844 -0.172,0 -0.531,-0.062 -0.703,-0.219 -0.203,-0.171 -0.25,-0.234 -0.25,-0.593 v -1.813 c 0,-0.219 0.047,-0.297 0.172,-0.437 z m -0.187,-0.375 c -0.016,-0.297 -0.032,-0.563 -0.094,-0.657 -0.016,-0.046 -0.031,-0.078 -0.11,-0.078 -0.281,0.11 -0.546,0.203 -1.234,0.297 -0.016,0.047 0,0.219 0.031,0.266 0.532,0.062 0.641,0.109 0.641,0.687 v 4.25 c 0,0.828 -0.109,0.875 -0.719,0.907 -0.062,0.062 -0.062,0.265 0,0.328 0.344,0 0.719,-0.016 1.125,-0.016 0.391,0 0.875,0.016 1.203,0.016 0.063,-0.063 0.063,-0.266 0,-0.328 -0.718,-0.032 -0.828,-0.079 -0.828,-0.907 v -1.078 c 0,-0.125 0.047,-0.109 0.141,-0.062 0.25,0.093 0.547,0.14 0.875,0.14 0.562,0 1.062,-0.156 1.469,-0.547 0.468,-0.468 0.734,-1.078 0.734,-1.89 0,-1.063 -0.75,-2.031 -1.766,-2.031 -0.453,0 -0.968,0.312 -1.359,0.75 -0.063,0.062 -0.109,0.062 -0.109,-0.047 z"
         style="fill:#000000;fill-opacity:1;fill-rule:nonzero;stroke:none"
         id="path136" />
      <path
         d="m 104.77,64.766 c 0,1.015 0.687,2.14 2.093,2.14 0.641,0 1.125,-0.218 1.469,-0.547 0.453,-0.437 0.641,-1.078 0.641,-1.687 0,-1.031 -0.563,-2.234 -2.094,-2.234 -0.656,0 -1.188,0.265 -1.563,0.703 -0.359,0.422 -0.546,1 -0.546,1.625 z m 1.968,-1.985 c 0.86,0 1.391,0.782 1.391,2.219 0,1.25 -0.656,1.563 -1.125,1.563 -1.031,0 -1.375,-1.25 -1.375,-2.016 0,-0.875 0.203,-1.766 1.109,-1.766 z"
         style="fill:#000000;fill-opacity:1;fill-rule:nonzero;stroke:none"
         id="path138" />
      <path
         d="m 111.215,63.25 c -0.047,0.063 -0.11,0.078 -0.11,0 -0.015,-0.281 -0.031,-0.672 -0.078,-0.766 -0.031,-0.046 -0.047,-0.078 -0.125,-0.078 -0.281,0.11 -0.531,0.203 -1.218,0.297 -0.032,0.047 0,0.219 0.015,0.266 0.531,0.062 0.641,0.109 0.641,0.687 v 1.938 c 0,0.812 -0.094,0.859 -0.688,0.906 -0.062,0.063 -0.062,0.266 0,0.328 0.297,0 0.688,-0.015 1.094,-0.015 0.391,0 0.688,0.015 1,0.015 0.047,-0.062 0.047,-0.265 0,-0.328 -0.516,-0.047 -0.609,-0.094 -0.609,-0.906 v -1.625 c 0,-0.219 0.078,-0.344 0.156,-0.422 0.391,-0.375 0.828,-0.594 1.219,-0.594 0.203,0 0.406,0.125 0.531,0.36 0.109,0.203 0.125,0.468 0.125,0.765 v 1.516 c 0,0.812 -0.109,0.859 -0.625,0.906 -0.047,0.063 -0.047,0.266 0,0.328 0.297,0 0.625,-0.015 1.016,-0.015 0.406,0 0.765,0.015 1.062,0.015 0.047,-0.062 0.047,-0.265 0,-0.328 -0.562,-0.047 -0.672,-0.094 -0.672,-0.906 v -1.485 c 0,-0.546 -0.031,-1.031 -0.265,-1.328 -0.172,-0.218 -0.485,-0.343 -0.829,-0.343 -0.484,0 -1.046,0.125 -1.64,0.812 z"
         style="fill:#000000;fill-opacity:1;fill-rule:nonzero;stroke:none"
         id="path140" />
      <path
         d="m 116.02,64 c 0.187,-1.125 0.89,-1.219 1.125,-1.219 0.375,0 0.828,0.219 0.828,1.047 0,0.094 -0.032,0.141 -0.141,0.141 z m 2.609,1.891 c -0.359,0.375 -0.656,0.531 -1.234,0.531 -0.36,0 -0.782,-0.203 -1.079,-0.719 -0.203,-0.328 -0.328,-0.781 -0.328,-1.359 l 2.657,0.015 c 0.125,0 0.187,-0.062 0.187,-0.171 0,-0.829 -0.297,-1.735 -1.687,-1.735 -0.86,0 -1.985,0.828 -1.985,2.344 0,0.562 0.141,1.094 0.469,1.484 0.328,0.391 0.797,0.625 1.516,0.625 0.765,0 1.296,-0.343 1.703,-0.859 -0.032,-0.109 -0.094,-0.156 -0.219,-0.156 z"
         style="fill:#000000;fill-opacity:1;fill-rule:nonzero;stroke:none"
         id="path142" />
      <path
         d="m 121.066,63.25 c -0.046,0.063 -0.109,0.078 -0.109,0 -0.016,-0.281 -0.031,-0.672 -0.078,-0.766 -0.031,-0.046 -0.047,-0.078 -0.125,-0.078 -0.281,0.11 -0.531,0.203 -1.219,0.297 -0.031,0.047 0,0.219 0.016,0.266 0.531,0.062 0.64,0.109 0.64,0.687 v 1.938 c 0,0.812 -0.093,0.859 -0.687,0.906 -0.063,0.063 -0.063,0.266 0,0.328 0.297,0 0.687,-0.015 1.094,-0.015 0.39,0 0.687,0.015 1,0.015 0.047,-0.062 0.047,-0.265 0,-0.328 -0.516,-0.047 -0.61,-0.094 -0.61,-0.906 v -1.625 c 0,-0.219 0.078,-0.344 0.157,-0.422 0.39,-0.375 0.828,-0.594 1.218,-0.594 0.203,0 0.407,0.125 0.532,0.36 0.109,0.203 0.125,0.468 0.125,0.765 v 1.516 c 0,0.812 -0.11,0.859 -0.625,0.906 -0.047,0.063 -0.047,0.266 0,0.328 0.296,0 0.625,-0.015 1.015,-0.015 0.406,0 0.766,0.015 1.063,0.015 0.047,-0.062 0.047,-0.265 0,-0.328 -0.563,-0.047 -0.672,-0.094 -0.672,-0.906 v -1.485 c 0,-0.546 -0.031,-1.031 -0.266,-1.328 -0.172,-0.218 -0.484,-0.343 -0.828,-0.343 -0.484,0 -1.047,0.125 -1.641,0.812 z"
         style="fill:#000000;fill-opacity:1;fill-rule:nonzero;stroke:none"
         id="path144" />
      <path
         d="m 125.059,62.531 c -0.125,0 -0.172,0.125 -0.172,0.203 v 0.125 c 0,0.063 0.015,0.063 0.047,0.063 h 0.593 v 3 c 0,0.719 0.313,0.984 0.766,0.984 0.453,0 0.953,-0.218 1.344,-0.656 -0.016,-0.094 -0.078,-0.156 -0.172,-0.172 -0.266,0.203 -0.563,0.281 -0.828,0.281 -0.266,0 -0.328,-0.296 -0.328,-0.906 v -2.531 h 1.046 c 0.094,0 0.235,-0.031 0.235,-0.125 v -0.203 c 0,-0.031 -0.031,-0.063 -0.078,-0.063 h -1.203 v -0.39 c 0,-0.641 0.046,-1.047 0.046,-1.047 0,-0.047 -0.031,-0.078 -0.078,-0.078 -0.047,0 -0.14,0.031 -0.218,0.078 -0.11,0.062 -0.219,0.109 -0.344,0.14 -0.125,0.047 -0.219,0.079 -0.219,0.141 0,0.125 0.031,0.047 0.031,1.156 z"
         style="fill:#000000;fill-opacity:1;fill-rule:nonzero;stroke:none"
         id="path146" />
      <path
         d="m 128.816,65.859 c -0.296,0 -0.515,0.219 -0.515,0.5 0,0.297 0.25,0.407 0.437,0.438 0.188,0.016 0.36,0.078 0.36,0.312 0,0.204 -0.36,0.657 -0.891,0.797 0,0.094 0.031,0.157 0.094,0.235 0.594,-0.11 1.172,-0.594 1.172,-1.282 0,-0.609 -0.25,-1 -0.657,-1 z"
         style="fill:#000000;fill-opacity:1;fill-rule:nonzero;stroke:none"
         id="path148" />
      <path
         d="m 133.359,66.094 c -0.046,0.203 -0.14,0.453 -0.14,0.547 0,0.172 0.094,0.265 0.422,0.265 0.375,0 0.375,-0.437 0.453,-0.812 l 0.359,-1.61 c 0.078,-0.031 0.156,-0.031 0.219,-0.031 0.078,0 0.156,0.063 0.203,0.156 0.172,0.313 0.281,0.829 0.484,1.282 0.329,0.718 0.579,1.015 0.985,1.015 0.344,0 0.687,-0.297 1.015,-0.859 -0.078,-0.078 -0.109,-0.125 -0.218,-0.125 -0.203,0.281 -0.422,0.469 -0.532,0.469 -0.187,0 -0.25,-0.172 -0.359,-0.375 -0.266,-0.547 -0.406,-0.938 -0.547,-1.219 -0.156,-0.313 -0.219,-0.453 -0.547,-0.531 v -0.047 l 0.516,-0.453 c 0.5,-0.438 0.766,-0.625 0.969,-0.625 0.25,0 0.218,0.14 0.547,0.14 0.14,0 0.468,-0.187 0.468,-0.5 0,-0.281 -0.218,-0.343 -0.5,-0.343 -0.312,0 -0.922,0.375 -1.64,1.015 l -0.391,0.344 c -0.172,0.141 -0.391,0.297 -0.594,0.297 L 135.25,61 c 0.156,-0.641 0.25,-1.047 0.25,-1.047 0,-0.062 -0.031,-0.094 -0.125,-0.094 -0.266,0.094 -0.984,0.219 -1.391,0.25 l -0.031,0.25 c 0,0.016 0.016,0.047 0.047,0.047 l 0.313,0.016 c 0.125,0 0.203,0.062 0.203,0.281 0,0.11 -0.016,0.281 -0.063,0.5 z"
         style="fill:#000000;fill-opacity:1;fill-rule:nonzero;stroke:none"
         id="path150" />
      <g
         id="g152">
        <path
           d="m 90,22.5 h 35 v 35 H 90 Z"
           style="fill:none;stroke:#000000;stroke-width:1.00063;stroke-linecap:butt;stroke-linejoin:miter;stroke-miterlimit:4;stroke-dasharray:none;stroke-opacity:1"
           id="path154" />
      </g>
      <g
         id="g156">
        <path
           d="m 165,22.5 h 35 v 35 h -35 z"
           style="fill:none;stroke:#000000;stroke-width:1;stroke-linecap:butt;stroke-linejoin:miter;stroke-miterlimit:4;stroke-dasharray:none;stroke-opacity:1"
           id="path158" />
      </g>
      <g
         id="g160">
        <path
           d="m 125,32.5 h 38"
           style="fill:none;stroke:#000000;stroke-width:1;stroke-linecap:butt;stroke-linejoin:miter;stroke-miterlimit:4;stroke-dasharray:3, 1;stroke-dashoffset:0;stroke-opacity:1"
           id="path162" />
      </g>
      <g
         id="g164"
         transform="scale(-1)">
        <path
           d="m -159,-32.5 2,-2 -7,2 7,2 z"
           style="fill:#000000;fill-opacity:1;fill-rule:evenodd;stroke:#000000;stroke-width:0.533333;stroke-linecap:butt;stroke-linejoin:miter;stroke-miterlimit:4;stroke-dasharray:none;stroke-opacity:1"
           id="path166" />
      </g>
      <g
         id="g168">
        <path
           d="m 165,82.5 h 35 v 20 h -35 z"
           style="fill:none;stroke:#000000;stroke-width:1;stroke-linecap:butt;stroke-linejoin:miter;stroke-miterlimit:4;stroke-dasharray:none;stroke-opacity:1"
           id="path170" />
      </g>
      <g
         id="g172">
        <path
           d="m 185,57.5 v 23"
           style="fill:none;stroke:#000000;stroke-width:1;stroke-linecap:butt;stroke-linejoin:miter;stroke-miterlimit:4;stroke-dasharray:3, 1;stroke-dashoffset:0;stroke-opacity:1"
           id="path174" />
      </g>
      <g
         id="g176"
         transform="rotate(-90)">
        <path
           d="m -76.5,185 2,-2 -7,2 7,2 z"
           style="fill:#000000;fill-opacity:1;fill-rule:evenodd;stroke:#000000;stroke-width:0.533333;stroke-linecap:butt;stroke-linejoin:miter;stroke-miterlimit:4;stroke-dasharray:none;stroke-opacity:1"
           id="path178" />
      </g>
      <g
         id="g180">
        <path
           d="m 165,92.5 h -15 v -45 h -23"
           style="fill:none;stroke:#000000;stroke-width:1;stroke-linecap:butt;stroke-linejoin:miter;stroke-miterlimit:4;stroke-dasharray:3, 1;stroke-dashoffset:0;stroke-opacity:1"
           id="path182" />
      </g>
      <g
         id="g184">
        <path
           d="m 131,47.5 2,-2 -7,2 7,2 z"
           style="fill:#000000;fill-opacity:1;fill-rule:evenodd;stroke:#000000;stroke-width:0.533333;stroke-linecap:butt;stroke-linejoin:miter;stroke-miterlimit:4;stroke-dasharray:none;stroke-opacity:1"
           id="path186" />
      </g>
      <g
         id="g188">
        <path
           d="M 40,32.5 H 88"
           style="fill:none;stroke:#000000;stroke-width:1;stroke-linecap:butt;stroke-linejoin:miter;stroke-miterlimit:4;stroke-dasharray:3, 1;stroke-dashoffset:0;stroke-opacity:1"
           id="path190" />
      </g>
      <g
         id="g192"
         transform="scale(-1)">
        <path
           d="m -84,-32.5 2,-2 -7,2 7,2 z"
           style="fill:#000000;fill-opacity:1;fill-rule:evenodd;stroke:#000000;stroke-width:0.533333;stroke-linecap:butt;stroke-linejoin:miter;stroke-miterlimit:4;stroke-dasharray:none;stroke-opacity:1"
           id="path194" />
      </g>
      <g
         id="g196">
        <path
           d="M 40,47.5 H 88"
           style="fill:none;stroke:#000000;stroke-width:1;stroke-linecap:butt;stroke-linejoin:miter;stroke-miterlimit:4;stroke-dasharray:3, 1;stroke-dashoffset:0;stroke-opacity:1"
           id="path198" />
      </g>
      <g
         id="g200"
         transform="scale(-1)">
        <path
           d="m -84,-47.5 2,-2 -7,2 7,2 z"
           style="fill:#000000;fill-opacity:1;fill-rule:evenodd;stroke:#000000;stroke-width:0.533333;stroke-linecap:butt;stroke-linejoin:miter;stroke-miterlimit:4;stroke-dasharray:none;stroke-opacity:1"
           id="path202" />
      </g>
      <g
         id="g204">
        <path
           d="m 200,32.5 h 48"
           style="fill:none;stroke:#000000;stroke-width:1;stroke-linecap:butt;stroke-linejoin:miter;stroke-miterlimit:4;stroke-dasharray:3, 1;stroke-dashoffset:0;stroke-opacity:1"
           id="path206" />
      </g>
      <g
         id="g208"
         transform="scale(-1)">
        <path
           d="m -244,-32.5 2,-2 -7,2 7,2 z"
           style="fill:#000000;fill-opacity:1;fill-rule:evenodd;stroke:#000000;stroke-width:0.533333;stroke-linecap:butt;stroke-linejoin:miter;stroke-miterlimit:4;stroke-dasharray:none;stroke-opacity:1"
           id="path210" />
      </g>
      <g
         id="g212">
        <path
           d="m 200,92.5 h 48"
           style="fill:none;stroke:#000000;stroke-width:1;stroke-linecap:butt;stroke-linejoin:miter;stroke-miterlimit:4;stroke-dasharray:3, 1;stroke-dashoffset:0;stroke-opacity:1"
           id="path214" />
      </g>
      <g
         id="g216"
         transform="scale(-1)">
        <path
           d="m -244,-92.5 2,-2 -7,2 7,2 z"
           style="fill:#000000;fill-opacity:1;fill-rule:evenodd;stroke:#000000;stroke-width:0.533333;stroke-linecap:butt;stroke-linejoin:miter;stroke-miterlimit:4;stroke-dasharray:none;stroke-opacity:1"
           id="path218" />
      </g>
      <path
         d="M 147.984,12.328 V 9.656 h 0.922 c 0.094,0 0.235,-0.031 0.235,-0.125 V 9.328 c 0,-0.031 -0.032,-0.062 -0.078,-0.062 h -1.079 V 8.703 c 0,-1.531 0.454,-1.781 0.782,-1.781 0.297,0 0.453,0.125 0.593,0.469 0.079,0.187 0.188,0.328 0.407,0.328 0.172,0 0.406,-0.219 0.406,-0.406 0,-0.172 -0.109,-0.36 -0.313,-0.516 -0.265,-0.172 -0.531,-0.203 -0.906,-0.203 -0.828,0 -1.765,0.719 -1.765,2.281 v 0.391 h -0.5 c -0.188,0 -0.235,0.125 -0.235,0.203 v 0.125 c 0,0.062 0.016,0.062 0.047,0.062 h 0.688 v 2.672 c 0,0.828 -0.157,0.875 -0.688,0.906 -0.062,0.063 -0.062,0.266 0,0.329 0.344,0 0.688,-0.016 1.094,-0.016 0.39,0 0.875,0.016 1.219,0.016 0.062,-0.063 0.062,-0.266 0,-0.329 -0.782,-0.031 -0.829,-0.078 -0.829,-0.906 z"
         style="fill:#000000;fill-opacity:1;fill-rule:nonzero;stroke:none"
         id="path220" />
      <path
         d="m 151.48,13.641 c 0.391,0 0.86,-0.188 1.36,-0.594 0.047,-0.031 0.14,-0.063 0.14,0.016 0.032,0.25 0.11,0.578 0.11,0.578 0.078,0.031 0.125,0.031 0.187,0 0.219,-0.172 0.578,-0.328 1.188,-0.391 0.047,-0.062 0.047,-0.219 0,-0.266 -0.641,-0.062 -0.735,-0.25 -0.735,-0.734 v -1.906 c 0,-0.313 0.047,-1.031 0.047,-1.031 0,-0.032 -0.031,-0.063 -0.093,-0.063 -0.047,0.016 -0.188,0.016 -0.344,0.016 -0.313,0 -0.672,0 -1.016,-0.016 -0.062,0.063 -0.062,0.266 0,0.328 0.485,0.031 0.625,0.156 0.625,0.813 v 1.922 c 0,0.187 -0.031,0.265 -0.172,0.39 -0.359,0.313 -0.734,0.469 -0.984,0.469 -0.313,0 -0.797,-0.141 -0.797,-1.016 v -1.812 c 0,-0.313 0.031,-1.031 0.031,-1.031 0,-0.032 -0.031,-0.063 -0.078,-0.063 -0.047,0.016 -0.203,0.016 -0.344,0.016 -0.328,0 -0.687,0 -1.015,-0.016 -0.063,0.063 -0.063,0.266 0,0.328 0.469,0.047 0.609,0.156 0.609,0.797 v 1.922 c 0,0.687 0.297,1.344 1.281,1.344 z"
         style="fill:#000000;fill-opacity:1;fill-rule:nonzero;stroke:none"
         id="path222" />
      <path
         d="m 156.441,9.984 c -0.046,0.063 -0.109,0.079 -0.109,0 -0.016,-0.281 -0.031,-0.671 -0.078,-0.765 -0.031,-0.047 -0.047,-0.078 -0.125,-0.078 -0.281,0.109 -0.531,0.203 -1.219,0.297 -0.031,0.046 0,0.218 0.016,0.265 0.531,0.063 0.64,0.11 0.64,0.688 v 1.937 c 0,0.813 -0.093,0.86 -0.687,0.906 -0.063,0.063 -0.063,0.266 0,0.329 0.297,0 0.687,-0.016 1.094,-0.016 0.39,0 0.687,0.016 1,0.016 0.047,-0.063 0.047,-0.266 0,-0.329 -0.516,-0.046 -0.61,-0.093 -0.61,-0.906 v -1.625 c 0,-0.219 0.078,-0.344 0.157,-0.422 0.39,-0.375 0.828,-0.593 1.218,-0.593 0.203,0 0.407,0.125 0.532,0.359 0.109,0.203 0.125,0.469 0.125,0.766 v 1.515 c 0,0.813 -0.11,0.86 -0.625,0.906 -0.047,0.063 -0.047,0.266 0,0.329 0.296,0 0.625,-0.016 1.015,-0.016 0.406,0 0.766,0.016 1.063,0.016 0.047,-0.063 0.047,-0.266 0,-0.329 -0.563,-0.046 -0.672,-0.093 -0.672,-0.906 v -1.484 c 0,-0.547 -0.031,-1.031 -0.266,-1.328 -0.172,-0.219 -0.484,-0.344 -0.828,-0.344 -0.484,0 -1.047,0.125 -1.641,0.812 z"
         style="fill:#000000;fill-opacity:1;fill-rule:nonzero;stroke:none"
         id="path224" />
      <path
         d="m 163.98,12.641 c -0.046,-0.094 -0.125,-0.125 -0.203,-0.141 -0.343,0.438 -0.781,0.656 -1.203,0.656 -0.734,0 -1.344,-0.734 -1.344,-1.906 0,-1.094 0.485,-1.75 1.141,-1.75 0.594,0 0.672,0.344 0.719,0.703 0.015,0.266 0.156,0.36 0.375,0.36 0.203,0 0.484,-0.141 0.484,-0.438 0,-0.562 -0.562,-0.953 -1.531,-0.953 -0.984,0 -2.031,0.891 -2.031,2.297 0,1.297 0.718,2.172 1.968,2.172 0.594,0 1.125,-0.188 1.625,-1 z"
         style="fill:#000000;fill-opacity:1;fill-rule:nonzero;stroke:none"
         id="path226" />
      <path
         d="m 164.699,9.266 c -0.125,0 -0.172,0.125 -0.172,0.203 v 0.125 c 0,0.062 0.016,0.062 0.047,0.062 h 0.594 v 3 c 0,0.719 0.312,0.985 0.766,0.985 0.453,0 0.953,-0.219 1.343,-0.657 -0.015,-0.093 -0.078,-0.156 -0.172,-0.171 -0.265,0.203 -0.562,0.281 -0.828,0.281 -0.265,0 -0.328,-0.297 -0.328,-0.906 V 9.656 h 1.047 c 0.094,0 0.234,-0.031 0.234,-0.125 V 9.328 c 0,-0.031 -0.031,-0.062 -0.078,-0.062 h -1.203 V 8.875 c 0,-0.641 0.047,-1.047 0.047,-1.047 0,-0.047 -0.031,-0.078 -0.078,-0.078 -0.047,0 -0.141,0.031 -0.219,0.078 -0.109,0.063 -0.219,0.11 -0.344,0.141 -0.125,0.047 -0.218,0.078 -0.218,0.14 0,0.125 0.031,0.047 0.031,1.157 z"
         style="fill:#000000;fill-opacity:1;fill-rule:nonzero;stroke:none"
         id="path228" />
      <path
         d="m 168.316,7.578 c 0,0.25 0.25,0.516 0.485,0.516 0.281,0 0.515,-0.266 0.515,-0.485 0,-0.234 -0.203,-0.515 -0.468,-0.515 -0.25,0 -0.532,0.25 -0.532,0.484 z m 0.907,4.75 v -1.984 c 0,-0.5 0.047,-1.141 0.047,-1.141 0,-0.031 -0.047,-0.062 -0.125,-0.062 -0.282,0.109 -0.688,0.203 -1.375,0.297 -0.016,0.046 0,0.218 0.031,0.265 0.547,0.063 0.64,0.11 0.64,0.688 v 1.937 c 0,0.828 -0.109,0.86 -0.718,0.906 -0.063,0.063 -0.063,0.266 0,0.329 0.328,0 0.718,-0.016 1.125,-0.016 0.39,0 0.765,0.016 1.093,0.016 0.063,-0.063 0.063,-0.266 0,-0.329 -0.609,-0.031 -0.718,-0.078 -0.718,-0.906 z"
         style="fill:#000000;fill-opacity:1;fill-rule:nonzero;stroke:none"
         id="path230" />
      <path
         d="m 170.531,11.5 c 0,1.016 0.688,2.141 2.094,2.141 0.641,0 1.125,-0.219 1.469,-0.547 0.453,-0.438 0.64,-1.078 0.64,-1.688 0,-1.031 -0.562,-2.234 -2.093,-2.234 -0.657,0 -1.188,0.266 -1.563,0.703 -0.359,0.422 -0.547,1 -0.547,1.625 z M 172.5,9.516 c 0.859,0 1.391,0.781 1.391,2.218 0,1.25 -0.657,1.563 -1.125,1.563 -1.032,0 -1.375,-1.25 -1.375,-2.016 0,-0.875 0.203,-1.765 1.109,-1.765 z"
         style="fill:#000000;fill-opacity:1;fill-rule:nonzero;stroke:none"
         id="path232" />
      <path
         d="m 176.973,9.984 c -0.047,0.063 -0.11,0.079 -0.11,0 -0.015,-0.281 -0.031,-0.671 -0.078,-0.765 -0.031,-0.047 -0.047,-0.078 -0.125,-0.078 -0.281,0.109 -0.531,0.203 -1.219,0.297 -0.031,0.046 0,0.218 0.016,0.265 0.531,0.063 0.641,0.11 0.641,0.688 v 1.937 c 0,0.813 -0.094,0.86 -0.688,0.906 -0.062,0.063 -0.062,0.266 0,0.329 0.297,0 0.688,-0.016 1.094,-0.016 0.391,0 0.687,0.016 1,0.016 0.047,-0.063 0.047,-0.266 0,-0.329 -0.516,-0.046 -0.609,-0.093 -0.609,-0.906 v -1.625 c 0,-0.219 0.078,-0.344 0.156,-0.422 0.39,-0.375 0.828,-0.593 1.219,-0.593 0.203,0 0.406,0.125 0.531,0.359 0.109,0.203 0.125,0.469 0.125,0.766 v 1.515 c 0,0.813 -0.11,0.86 -0.625,0.906 -0.047,0.063 -0.047,0.266 0,0.329 0.297,0 0.625,-0.016 1.015,-0.016 0.407,0 0.766,0.016 1.063,0.016 0.047,-0.063 0.047,-0.266 0,-0.329 -0.563,-0.046 -0.672,-0.093 -0.672,-0.906 v -1.484 c 0,-0.547 -0.031,-1.031 -0.266,-1.328 -0.171,-0.219 -0.484,-0.344 -0.828,-0.344 -0.484,0 -1.047,0.125 -1.64,0.812 z"
         style="fill:#000000;fill-opacity:1;fill-rule:nonzero;stroke:none"
         id="path234" />
      <path
         d="m 183.469,11.219 v 1.328 c 0,0.125 -0.063,0.187 -0.141,0.25 -0.265,0.219 -0.594,0.437 -0.875,0.437 -0.5,0 -0.719,-0.39 -0.719,-0.703 0,-0.453 0.204,-0.906 0.954,-1.093 z m 0,1.844 c 0.062,0.312 0.172,0.578 0.672,0.578 0.375,0 0.734,-0.157 0.937,-0.36 -0.015,-0.125 -0.062,-0.218 -0.172,-0.265 -0.062,0.047 -0.234,0.156 -0.359,0.156 -0.297,0 -0.297,-0.391 -0.297,-0.844 v -1.469 c 0,-1.421 -0.781,-1.687 -1.516,-1.687 -0.812,0 -1.64,0.531 -1.64,1.109 0,0.235 0.125,0.36 0.344,0.36 0.296,0 0.468,-0.219 0.468,-0.344 0,-0.063 0,-0.141 -0.031,-0.172 0,-0.031 -0.016,-0.094 -0.016,-0.203 0,-0.313 0.422,-0.422 0.797,-0.422 0.344,0 0.813,0.172 0.813,1.297 0,0.062 -0.031,0.109 -0.063,0.125 l -0.859,0.203 c -0.953,0.234 -1.641,0.766 -1.641,1.438 0,0.828 0.563,1.078 1.25,1.078 0.36,0 0.657,-0.078 1.094,-0.407 l 0.203,-0.171 z"
         style="fill:#000000;fill-opacity:1;fill-rule:nonzero;stroke:none"
         id="path236" />
      <path
         d="m 186.051,12.328 c 0,0.828 -0.11,0.875 -0.719,0.906 -0.062,0.063 -0.062,0.266 0,0.329 0.344,0 0.719,-0.016 1.109,-0.016 0.407,0 0.782,0.016 1.11,0.016 0.062,-0.063 0.062,-0.266 0,-0.329 -0.61,-0.031 -0.719,-0.078 -0.719,-0.906 V 7.734 c 0,-0.64 0.047,-1.046 0.047,-1.046 0,-0.063 -0.047,-0.094 -0.141,-0.094 -0.25,0.094 -1,0.234 -1.39,0.265 -0.016,0.079 0,0.235 0.062,0.297 0.578,0.047 0.641,0.078 0.641,0.813 z"
         style="fill:#000000;fill-opacity:1;fill-rule:nonzero;stroke:none"
         id="path238" />
      <path
         d="m 193.406,10.766 c 0,0.922 -0.468,1.109 -0.843,1.109 -0.844,0 -0.922,-0.703 -0.922,-1.344 0,-0.687 0.25,-1.047 0.797,-1.047 0.625,0 0.968,0.454 0.968,1.282 z m -1.875,2.875 c 0.11,0.031 0.266,0.062 0.407,0.062 0.312,0 0.578,-0.031 0.718,-0.031 0.5,0 0.922,0 1.219,0.172 0.375,0.219 0.5,0.344 0.5,0.609 0,0.719 -1.062,1.094 -1.953,1.094 -0.359,0 -1.203,-0.281 -1.203,-0.969 0,-0.328 0.031,-0.578 0.312,-0.937 z m 3.11,-3.953 c 0.187,0 0.375,-0.172 0.375,-0.375 0,-0.219 -0.188,-0.375 -0.453,-0.375 -0.266,0 -0.75,0.171 -1,0.515 -0.125,-0.078 -0.454,-0.281 -1.047,-0.281 -0.875,0 -1.703,0.594 -1.703,1.516 0,0.531 0.25,0.843 0.515,1.109 -0.265,0.25 -0.437,0.672 -0.437,1.016 0,0.359 0.203,0.64 0.468,0.765 -0.546,0.313 -0.828,0.781 -0.828,1.203 0,0.875 0.828,1.141 1.594,1.141 1.344,0 2.797,-0.656 2.797,-1.734 0,-0.313 -0.141,-0.563 -0.438,-0.797 -0.39,-0.328 -1.078,-0.328 -1.453,-0.328 -0.187,0 -0.437,0.015 -0.672,0.046 -0.14,0.016 -0.25,0.016 -0.296,0.016 -0.282,0 -0.641,-0.141 -0.641,-0.562 0,-0.204 0.062,-0.407 0.187,-0.579 0.235,0.141 0.516,0.204 0.907,0.204 0.875,0 1.687,-0.547 1.687,-1.516 0,-0.469 -0.14,-0.75 -0.437,-1.047 0.078,-0.094 0.265,-0.234 0.406,-0.234 0.062,0 0.141,0.031 0.187,0.125 0.047,0.078 0.172,0.172 0.282,0.172 z"
         style="fill:#000000;fill-opacity:1;fill-rule:nonzero;stroke:none"
         id="path240" />
      <path
         d="m 196.949,9.984 c -0.015,-0.406 -0.031,-0.671 -0.078,-0.765 -0.016,-0.047 -0.031,-0.078 -0.109,-0.078 -0.282,0.109 -0.547,0.203 -1.235,0.297 -0.015,0.046 0,0.218 0.016,0.265 0.547,0.063 0.656,0.11 0.656,0.688 v 1.937 c 0,0.828 -0.125,0.875 -0.734,0.906 -0.063,0.063 -0.063,0.266 0,0.329 0.344,0 0.734,-0.016 1.125,-0.016 0.406,0 0.859,0.016 1.219,0.016 0.046,-0.063 0.046,-0.266 0,-0.329 -0.704,-0.046 -0.829,-0.078 -0.829,-0.906 v -1.39 c 0,-0.25 0.125,-0.485 0.25,-0.657 0.11,-0.156 0.329,-0.5 0.454,-0.5 0.093,0 0.171,0.032 0.25,0.141 0.078,0.094 0.203,0.219 0.359,0.219 0.25,0 0.469,-0.25 0.469,-0.485 0,-0.203 -0.172,-0.484 -0.594,-0.484 -0.469,0 -0.875,0.437 -1.109,0.828 -0.063,0.109 -0.11,0.031 -0.11,-0.016 z"
         style="fill:#000000;fill-opacity:1;fill-rule:nonzero;stroke:none"
         id="path242" />
      <path
         d="m 199.234,11.5 c 0,1.016 0.688,2.141 2.094,2.141 0.641,0 1.125,-0.219 1.469,-0.547 0.453,-0.438 0.641,-1.078 0.641,-1.688 0,-1.031 -0.563,-2.234 -2.094,-2.234 -0.656,0 -1.188,0.266 -1.563,0.703 -0.359,0.422 -0.547,1 -0.547,1.625 z m 1.969,-1.984 c 0.86,0 1.391,0.781 1.391,2.218 0,1.25 -0.656,1.563 -1.125,1.563 -1.031,0 -1.375,-1.25 -1.375,-2.016 0,-0.875 0.203,-1.765 1.109,-1.765 z"
         style="fill:#000000;fill-opacity:1;fill-rule:nonzero;stroke:none"
         id="path244" />
      <path
         d="m 206.004,13.641 c 0.391,0 0.859,-0.188 1.359,-0.594 0.047,-0.031 0.141,-0.063 0.141,0.016 0.031,0.25 0.109,0.578 0.109,0.578 0.078,0.031 0.125,0.031 0.188,0 0.219,-0.172 0.578,-0.328 1.187,-0.391 0.047,-0.062 0.047,-0.219 0,-0.266 -0.64,-0.062 -0.734,-0.25 -0.734,-0.734 v -1.906 c 0,-0.313 0.047,-1.031 0.047,-1.031 0,-0.032 -0.031,-0.063 -0.094,-0.063 -0.047,0.016 -0.187,0.016 -0.344,0.016 -0.312,0 -0.672,0 -1.015,-0.016 -0.063,0.063 -0.063,0.266 0,0.328 0.484,0.031 0.625,0.156 0.625,0.813 v 1.922 c 0,0.187 -0.032,0.265 -0.172,0.39 -0.36,0.313 -0.735,0.469 -0.985,0.469 -0.312,0 -0.796,-0.141 -0.796,-1.016 v -1.812 c 0,-0.313 0.031,-1.031 0.031,-1.031 0,-0.032 -0.031,-0.063 -0.078,-0.063 -0.047,0.016 -0.203,0.016 -0.344,0.016 -0.328,0 -0.688,0 -1.016,-0.016 -0.062,0.063 -0.062,0.266 0,0.328 0.469,0.047 0.61,0.156 0.61,0.797 v 1.922 c 0,0.687 0.297,1.344 1.281,1.344 z"
         style="fill:#000000;fill-opacity:1;fill-rule:nonzero;stroke:none"
         id="path246" />
      <path
         d="m 210.887,10.25 c 0.25,-0.328 0.718,-0.625 1,-0.625 0.64,0 1.187,0.719 1.187,1.844 0,0.828 -0.281,1.844 -1.406,1.844 -0.172,0 -0.531,-0.063 -0.703,-0.219 -0.203,-0.172 -0.25,-0.235 -0.25,-0.594 v -1.812 c 0,-0.219 0.047,-0.297 0.172,-0.438 z m -0.188,-0.375 c -0.015,-0.297 -0.031,-0.562 -0.094,-0.656 -0.015,-0.047 -0.031,-0.078 -0.109,-0.078 -0.281,0.109 -0.547,0.203 -1.234,0.297 -0.016,0.046 0,0.218 0.031,0.265 0.531,0.063 0.641,0.11 0.641,0.688 v 4.25 c 0,0.828 -0.11,0.875 -0.719,0.906 -0.063,0.062 -0.063,0.266 0,0.328 0.344,0 0.719,-0.016 1.125,-0.016 0.39,0 0.875,0.016 1.203,0.016 0.062,-0.062 0.062,-0.266 0,-0.328 -0.719,-0.031 -0.828,-0.078 -0.828,-0.906 v -1.078 c 0,-0.125 0.047,-0.11 0.14,-0.063 0.25,0.094 0.547,0.141 0.875,0.141 0.563,0 1.063,-0.157 1.469,-0.547 0.469,-0.469 0.735,-1.078 0.735,-1.891 0,-1.062 -0.75,-2.031 -1.766,-2.031 -0.453,0 -0.969,0.312 -1.359,0.75 -0.063,0.062 -0.11,0.062 -0.11,-0.047 z"
         style="fill:#000000;fill-opacity:1;fill-rule:nonzero;stroke:none"
         id="path248" />
      <path
         d="m 215.242,12.594 c -0.297,0 -0.515,0.219 -0.515,0.5 0,0.297 0.25,0.406 0.437,0.437 0.188,0.016 0.359,0.078 0.359,0.313 0,0.203 -0.359,0.656 -0.89,0.797 0,0.093 0.031,0.156 0.094,0.234 0.593,-0.109 1.171,-0.594 1.171,-1.281 0,-0.61 -0.25,-1 -0.656,-1 z"
         style="fill:#000000;fill-opacity:1;fill-rule:nonzero;stroke:none"
         id="path250" />
      <path
         d="m 223.75,6.984 c -1.656,0 -3.531,1.313 -3.969,3.5 -0.031,0.219 -0.047,0.438 -0.047,0.641 0,1.422 0.985,2.516 2.672,2.516 1.125,0 1.969,-0.344 2.735,-0.922 -0.094,-0.094 -0.125,-0.172 -0.094,-0.281 l 0.219,-1.157 c 0.062,-0.343 0.234,-0.406 0.515,-0.437 0.047,-0.016 0.094,-0.031 0.094,-0.078 l 0.047,-0.266 -0.016,-0.016 c -0.281,0.016 -0.5,0.016 -0.89,0.016 -0.36,0 -0.75,0 -1.203,-0.016 l -0.016,0.016 -0.047,0.266 c -0.016,0.047 0.016,0.078 0.063,0.078 l 0.234,0.015 c 0.312,0.032 0.453,0.094 0.453,0.297 0,0.032 0,0.078 0,0.125 l -0.312,1.532 c -0.375,0.312 -0.969,0.468 -1.485,0.468 -1.453,0 -2.094,-1.234 -2.094,-2.406 0,-0.203 0,-0.406 0.047,-0.594 0.344,-1.734 1.594,-2.922 2.891,-2.922 1.391,0 1.734,0.813 1.812,1.672 l 0.297,-0.062 c 0,-0.422 0.016,-0.813 0.094,-1.531 -0.578,0 -0.844,-0.454 -2,-0.454 z"
         style="fill:#000000;fill-opacity:1;fill-rule:nonzero;stroke:none"
         id="path252" />
    </g>
  </g>
</svg>
